<svg width="3137" height="199" viewBox="0 0 3137 199" fill="none" xmlns="http://www.w3.org/2000/svg">
<g clip-path="url(#clip0_985_6230)">
<rect width="3137" height="199" fill="white"/>
<rect x="-80" y="199" width="15" height="3217" transform="rotate(-90 -80 199)" fill="#9E0059"/>
<rect x="-49" y="15" width="15" height="3186" transform="rotate(-90 -49 15)" fill="#9E0059"/>
<path d="M13.1405 83.8996C14.8169 81.1015 18.8715 81.1015 20.548 83.8996L64.3419 156.995C66.0661 159.872 63.993 163.531 60.6381 163.531H-26.9497C-30.3045 163.531 -32.3777 159.872 -30.6534 156.995L13.1405 83.8996Z" fill="#FFBD00"/>
<path d="M95.176 116.871C96.8524 119.67 100.907 119.67 102.584 116.871L146.377 43.7765C148.102 40.8986 146.028 37.2398 142.674 37.2398L55.0859 37.2398C51.731 37.2398 49.6579 40.8986 51.3821 43.7765L95.176 116.871Z" fill="#FF0054"/>
<path d="M177.211 83.8996C178.888 81.1015 182.943 81.1015 184.619 83.8996L228.413 156.995C230.137 159.872 228.064 163.531 224.709 163.531H137.121C133.767 163.531 131.693 159.872 133.418 156.995L177.211 83.8996Z" fill="#390099"/>
<path d="M257.088 116.871C258.765 119.67 262.819 119.67 264.496 116.871L308.29 43.7765C310.014 40.8986 307.941 37.2398 304.586 37.2398L216.998 37.2398C213.643 37.2398 211.57 40.8986 213.294 43.7765L257.088 116.871Z" fill="#9E0059"/>
<circle cx="17.1947" cy="51.812" r="15.1118" transform="rotate(-90 17.1947 51.812)" fill="#390099"/>
<circle cx="99.2302" cy="148.959" r="15.1118" transform="rotate(-90 99.2302 148.959)" fill="#9E0059"/>
<circle cx="181.266" cy="51.812" r="15.1118" transform="rotate(-90 181.266 51.812)" fill="#FF0054"/>
<circle cx="261.142" cy="148.959" r="15.1118" transform="rotate(-90 261.142 148.959)" fill="#FFBD00"/>
<path d="M660.789 83.8996C662.466 81.1015 666.52 81.1015 668.197 83.8996L711.991 156.995C713.715 159.872 711.642 163.531 708.287 163.531H620.699C617.344 163.531 615.271 159.872 616.996 156.995L660.789 83.8996Z" fill="#FFBD00"/>
<path d="M742.825 116.871C744.501 119.67 748.556 119.67 750.232 116.871L794.026 43.7765C795.751 40.8986 793.677 37.2398 790.323 37.2398L702.735 37.2398C699.38 37.2398 697.307 40.8986 699.031 43.7765L742.825 116.871Z" fill="#FF0054"/>
<path d="M824.86 83.8996C826.537 81.1015 830.592 81.1015 832.268 83.8996L876.062 156.995C877.786 159.872 875.713 163.531 872.358 163.531H784.77C781.415 163.531 779.342 159.872 781.067 156.995L824.86 83.8996Z" fill="#390099"/>
<path d="M904.737 116.871C906.414 119.67 910.468 119.67 912.145 116.871L955.939 43.7765C957.663 40.8986 955.59 37.2398 952.235 37.2398L864.647 37.2398C861.292 37.2398 859.219 40.8986 860.943 43.7765L904.737 116.871Z" fill="#9E0059"/>
<circle cx="664.844" cy="51.812" r="15.1118" transform="rotate(-90 664.844 51.812)" fill="#390099"/>
<circle cx="746.879" cy="148.959" r="15.1118" transform="rotate(-90 746.879 148.959)" fill="#9E0059"/>
<circle cx="828.915" cy="51.812" r="15.1118" transform="rotate(-90 828.915 51.812)" fill="#FF0054"/>
<circle cx="908.791" cy="148.959" r="15.1118" transform="rotate(-90 908.791 148.959)" fill="#FFBD00"/>
<path d="M336.965 83.8996C338.641 81.1015 342.696 81.1015 344.372 83.8996L388.166 156.995C389.89 159.872 387.817 163.531 384.462 163.531H296.875C293.52 163.531 291.447 159.872 293.171 156.995L336.965 83.8996Z" fill="#FFBD00"/>
<path d="M419 116.871C420.677 119.67 424.731 119.67 426.408 116.871L470.202 43.7765C471.926 40.8986 469.853 37.2398 466.498 37.2398L378.91 37.2398C375.555 37.2398 373.482 40.8986 375.206 43.7765L419 116.871Z" fill="#FF0054"/>
<path d="M501.036 83.8996C502.712 81.1015 506.767 81.1015 508.443 83.8996L552.237 156.995C553.962 159.872 551.888 163.531 548.534 163.531H460.946C457.591 163.531 455.518 159.872 457.242 156.995L501.036 83.8996Z" fill="#390099"/>
<path d="M580.913 116.871C582.589 119.67 586.644 119.67 588.32 116.871L632.114 43.7765C633.838 40.8986 631.765 37.2398 628.41 37.2398L540.822 37.2398C537.468 37.2398 535.394 40.8986 537.119 43.7765L580.913 116.871Z" fill="#9E0059"/>
<circle cx="341.019" cy="51.812" r="15.1118" transform="rotate(-90 341.019 51.812)" fill="#390099"/>
<circle cx="423.055" cy="148.959" r="15.1118" transform="rotate(-90 423.055 148.959)" fill="#9E0059"/>
<circle cx="505.09" cy="51.812" r="15.1118" transform="rotate(-90 505.09 51.812)" fill="#FF0054"/>
<circle cx="584.967" cy="148.959" r="15.1118" transform="rotate(-90 584.967 148.959)" fill="#FFBD00"/>
<path d="M984.613 83.8996C986.29 81.1015 990.344 81.1015 992.021 83.8996L1035.81 156.995C1037.54 159.872 1035.47 163.531 1032.11 163.531H944.523C941.168 163.531 939.095 159.872 940.819 156.995L984.613 83.8996Z" fill="#FFBD00"/>
<path d="M1066.65 116.871C1068.33 119.67 1072.38 119.67 1074.06 116.871L1117.85 43.7765C1119.57 40.8986 1117.5 37.2398 1114.15 37.2398L1026.56 37.2398C1023.2 37.2398 1021.13 40.8986 1022.85 43.7765L1066.65 116.871Z" fill="#FF0054"/>
<path d="M1148.68 83.8996C1150.36 81.1015 1154.42 81.1015 1156.09 83.8996L1199.89 156.995C1201.61 159.872 1199.54 163.531 1196.18 163.531H1108.59C1105.24 163.531 1103.17 159.872 1104.89 156.995L1148.68 83.8996Z" fill="#390099"/>
<path d="M1228.56 116.871C1230.24 119.67 1234.29 119.67 1235.97 116.871L1279.76 43.7765C1281.49 40.8986 1279.41 37.2398 1276.06 37.2398L1188.47 37.2398C1185.12 37.2398 1183.04 40.8986 1184.77 43.7765L1228.56 116.871Z" fill="#9E0059"/>
<circle cx="988.668" cy="51.812" r="15.1118" transform="rotate(-90 988.668 51.812)" fill="#390099"/>
<circle cx="1070.7" cy="148.959" r="15.1118" transform="rotate(-90 1070.7 148.959)" fill="#9E0059"/>
<circle cx="1152.74" cy="51.812" r="15.1118" transform="rotate(-90 1152.74 51.812)" fill="#FF0054"/>
<circle cx="1232.62" cy="148.959" r="15.1118" transform="rotate(-90 1232.62 148.959)" fill="#FFBD00"/>
<path d="M1306.66 82.2644C1308.34 79.4662 1312.4 79.4662 1314.07 82.2644L1357.87 155.359C1359.59 158.237 1357.52 161.896 1354.16 161.896H1266.57C1263.22 161.896 1261.15 158.237 1262.87 155.359L1306.66 82.2644Z" fill="#FFBD00"/>
<path d="M1388.7 115.236C1390.38 118.034 1394.43 118.034 1396.11 115.236L1439.9 42.1412C1441.63 39.2633 1439.55 35.6045 1436.2 35.6045L1348.61 35.6045C1345.25 35.6045 1343.18 39.2634 1344.91 42.1412L1388.7 115.236Z" fill="#FF0054"/>
<path d="M1470.74 82.2644C1472.41 79.4662 1476.47 79.4662 1478.14 82.2644L1521.94 155.359C1523.66 158.237 1521.59 161.896 1518.23 161.896H1430.64C1427.29 161.896 1425.22 158.237 1426.94 155.359L1470.74 82.2644Z" fill="#390099"/>
<path d="M1550.61 115.236C1552.29 118.034 1556.34 118.034 1558.02 115.236L1601.81 42.1412C1603.54 39.2633 1601.46 35.6045 1598.11 35.6045L1510.52 35.6045C1507.17 35.6045 1505.09 39.2634 1506.82 42.1412L1550.61 115.236Z" fill="#9E0059"/>
<circle cx="1310.72" cy="50.1768" r="15.1118" transform="rotate(-90 1310.72 50.1768)" fill="#390099"/>
<circle cx="1392.75" cy="147.324" r="15.1118" transform="rotate(-90 1392.75 147.324)" fill="#9E0059"/>
<circle cx="1474.79" cy="50.1768" r="15.1118" transform="rotate(-90 1474.79 50.1768)" fill="#FF0054"/>
<circle cx="1554.67" cy="147.324" r="15.1118" transform="rotate(-90 1554.67 147.324)" fill="#FFBD00"/>
<path d="M2294.66 84.2644C2296.34 81.4662 2300.4 81.4662 2302.07 84.2644L2345.87 157.359C2347.59 160.237 2345.52 163.896 2342.16 163.896H2254.57C2251.22 163.896 2249.15 160.237 2250.87 157.359L2294.66 84.2644Z" fill="#FFBD00"/>
<path d="M2376.7 117.236C2378.38 120.034 2382.43 120.034 2384.11 117.236L2427.9 44.1412C2429.63 41.2633 2427.55 37.6045 2424.2 37.6045L2336.61 37.6045C2333.25 37.6045 2331.18 41.2634 2332.91 44.1412L2376.7 117.236Z" fill="#FF0054"/>
<path d="M2458.74 84.2644C2460.41 81.4662 2464.47 81.4662 2466.14 84.2644L2509.94 157.359C2511.66 160.237 2509.59 163.896 2506.23 163.896H2418.64C2415.29 163.896 2413.22 160.237 2414.94 157.359L2458.74 84.2644Z" fill="#390099"/>
<path d="M2538.61 117.236C2540.29 120.034 2544.34 120.034 2546.02 117.236L2589.81 44.1412C2591.54 41.2633 2589.46 37.6045 2586.11 37.6045L2498.52 37.6045C2495.17 37.6045 2493.09 41.2634 2494.82 44.1412L2538.61 117.236Z" fill="#9E0059"/>
<circle cx="2298.72" cy="52.1768" r="15.1118" transform="rotate(-90 2298.72 52.1768)" fill="#390099"/>
<circle cx="2380.75" cy="149.324" r="15.1118" transform="rotate(-90 2380.75 149.324)" fill="#9E0059"/>
<circle cx="2462.79" cy="52.1768" r="15.1118" transform="rotate(-90 2462.79 52.1768)" fill="#FF0054"/>
<circle cx="2542.67" cy="149.324" r="15.1118" transform="rotate(-90 2542.67 149.324)" fill="#FFBD00"/>
<path d="M1634.66 83.2644C1636.34 80.4662 1640.4 80.4662 1642.07 83.2644L1685.87 156.359C1687.59 159.237 1685.52 162.896 1682.16 162.896H1594.57C1591.22 162.896 1589.15 159.237 1590.87 156.359L1634.66 83.2644Z" fill="#FFBD00"/>
<path d="M1716.7 116.236C1718.38 119.034 1722.43 119.034 1724.11 116.236L1767.9 43.1412C1769.63 40.2633 1767.55 36.6045 1764.2 36.6045L1676.61 36.6045C1673.25 36.6045 1671.18 40.2634 1672.91 43.1412L1716.7 116.236Z" fill="#FF0054"/>
<path d="M1798.74 83.2644C1800.41 80.4662 1804.47 80.4662 1806.14 83.2644L1849.94 156.359C1851.66 159.237 1849.59 162.896 1846.23 162.896H1758.64C1755.29 162.896 1753.22 159.237 1754.94 156.359L1798.74 83.2644Z" fill="#390099"/>
<path d="M1878.61 116.236C1880.29 119.034 1884.34 119.034 1886.02 116.236L1929.81 43.1412C1931.54 40.2633 1929.46 36.6045 1926.11 36.6045L1838.52 36.6045C1835.17 36.6045 1833.09 40.2634 1834.82 43.1412L1878.61 116.236Z" fill="#9E0059"/>
<circle cx="1638.72" cy="51.1768" r="15.1118" transform="rotate(-90 1638.72 51.1768)" fill="#390099"/>
<circle cx="1720.75" cy="148.324" r="15.1118" transform="rotate(-90 1720.75 148.324)" fill="#9E0059"/>
<circle cx="1802.79" cy="51.1768" r="15.1118" transform="rotate(-90 1802.79 51.1768)" fill="#FF0054"/>
<circle cx="1882.67" cy="148.324" r="15.1118" transform="rotate(-90 1882.67 148.324)" fill="#FFBD00"/>
<path d="M2622.66 85.2644C2624.34 82.4662 2628.4 82.4662 2630.07 85.2644L2673.87 158.359C2675.59 161.237 2673.52 164.896 2670.16 164.896H2582.57C2579.22 164.896 2577.15 161.237 2578.87 158.359L2622.66 85.2644Z" fill="#FFBD00"/>
<path d="M2704.7 118.236C2706.38 121.034 2710.43 121.034 2712.11 118.236L2755.9 45.1412C2757.63 42.2633 2755.55 38.6045 2752.2 38.6045L2664.61 38.6045C2661.25 38.6045 2659.18 42.2634 2660.91 45.1412L2704.7 118.236Z" fill="#FF0054"/>
<path d="M2786.74 85.2644C2788.41 82.4662 2792.47 82.4662 2794.14 85.2644L2837.94 158.359C2839.66 161.237 2837.59 164.896 2834.23 164.896H2746.64C2743.29 164.896 2741.22 161.237 2742.94 158.359L2786.74 85.2644Z" fill="#390099"/>
<path d="M2866.61 118.236C2868.29 121.034 2872.34 121.034 2874.02 118.236L2917.81 45.1412C2919.54 42.2633 2917.46 38.6045 2914.11 38.6045L2826.52 38.6045C2823.17 38.6045 2821.09 42.2634 2822.82 45.1412L2866.61 118.236Z" fill="#9E0059"/>
<circle cx="2626.72" cy="53.1768" r="15.1118" transform="rotate(-90 2626.72 53.1768)" fill="#390099"/>
<circle cx="2708.75" cy="150.324" r="15.1118" transform="rotate(-90 2708.75 150.324)" fill="#9E0059"/>
<circle cx="2790.79" cy="53.1768" r="15.1118" transform="rotate(-90 2790.79 53.1768)" fill="#FF0054"/>
<circle cx="2870.67" cy="150.324" r="15.1118" transform="rotate(-90 2870.67 150.324)" fill="#FFBD00"/>
<path d="M1966.66 83.2644C1968.34 80.4662 1972.4 80.4662 1974.07 83.2644L2017.87 156.359C2019.59 159.237 2017.52 162.896 2014.16 162.896H1926.57C1923.22 162.896 1921.15 159.237 1922.87 156.359L1966.66 83.2644Z" fill="#FFBD00"/>
<path d="M2048.7 116.236C2050.38 119.034 2054.43 119.034 2056.11 116.236L2099.9 43.1412C2101.63 40.2633 2099.55 36.6045 2096.2 36.6045L2008.61 36.6045C2005.25 36.6045 2003.18 40.2634 2004.91 43.1412L2048.7 116.236Z" fill="#FF0054"/>
<path d="M2130.74 83.2644C2132.41 80.4662 2136.47 80.4662 2138.14 83.2644L2181.94 156.359C2183.66 159.237 2181.59 162.896 2178.23 162.896H2090.64C2087.29 162.896 2085.22 159.237 2086.94 156.359L2130.74 83.2644Z" fill="#390099"/>
<path d="M2210.61 116.236C2212.29 119.034 2216.34 119.034 2218.02 116.236L2261.81 43.1412C2263.54 40.2633 2261.46 36.6045 2258.11 36.6045L2170.52 36.6045C2167.17 36.6045 2165.09 40.2634 2166.82 43.1412L2210.61 116.236Z" fill="#9E0059"/>
<circle cx="1970.72" cy="51.1768" r="15.1118" transform="rotate(-90 1970.72 51.1768)" fill="#390099"/>
<circle cx="2052.75" cy="148.324" r="15.1118" transform="rotate(-90 2052.75 148.324)" fill="#9E0059"/>
<circle cx="2134.79" cy="51.1768" r="15.1118" transform="rotate(-90 2134.79 51.1768)" fill="#FF0054"/>
<circle cx="2214.67" cy="148.324" r="15.1118" transform="rotate(-90 2214.67 148.324)" fill="#FFBD00"/>
<path d="M2954.66 85.2644C2956.34 82.4662 2960.4 82.4662 2962.07 85.2644L3005.87 158.359C3007.59 161.237 3005.52 164.896 3002.16 164.896H2914.57C2911.22 164.896 2909.15 161.237 2910.87 158.359L2954.66 85.2644Z" fill="#FFBD00"/>
<path d="M3036.7 118.236C3038.38 121.034 3042.43 121.034 3044.11 118.236L3087.9 45.1412C3089.63 42.2633 3087.55 38.6045 3084.2 38.6045L2996.61 38.6045C2993.25 38.6045 2991.18 42.2634 2992.91 45.1412L3036.7 118.236Z" fill="#FF0054"/>
<path d="M3118.74 85.2644C3120.41 82.4662 3124.47 82.4662 3126.14 85.2644L3169.94 158.359C3171.66 161.237 3169.59 164.896 3166.23 164.896H3078.64C3075.29 164.896 3073.22 161.237 3074.94 158.359L3118.74 85.2644Z" fill="#390099"/>
<circle cx="2958.72" cy="53.1768" r="15.1118" transform="rotate(-90 2958.72 53.1768)" fill="#390099"/>
<circle cx="3040.75" cy="150.324" r="15.1118" transform="rotate(-90 3040.75 150.324)" fill="#9E0059"/>
<circle cx="3122.79" cy="53.1768" r="15.1118" transform="rotate(-90 3122.79 53.1768)" fill="#FF0054"/>
</g>
<defs>
<clipPath id="clip0_985_6230">
<rect width="3137" height="199" fill="white"/>
</clipPath>
</defs>
</svg>
